<?xml version="1.0" encoding="UTF-8" standalone="no"?>
<!DOCTYPE svg PUBLIC "-//W3C//DTD SVG 1.0//EN" "http://www.w3.org/TR/2001/PR-SVG-20010719/DTD/svg10.dtd">
<svg width="8cm" height="126cm" viewBox="337 -50 148 2503" xmlns="http://www.w3.org/2000/svg" xmlns:xlink="http://www.w3.org/1999/xlink">
  <g>
    <line style="fill: none; fill-opacity:0; stroke-width: 2; stroke: #000000" x1="410.506" y1="166.698" x2="410.87" y2="188.625"/>
    <polygon style="fill: #000000" points="410.257,151.7 420.587,171.531 410.506,166.698 400.59,171.863 "/>
    <polygon style="fill: none; fill-opacity:0; stroke-width: 2; stroke: #000000" points="410.257,151.7 420.587,171.531 410.506,166.698 400.59,171.863 "/>
  </g>
  <g>
    <g>
      <polygon style="fill: #ffffff" points="338.737,-48.4081 445.462,-48.4081 481.037,-12.8331 481.037,129.467 338.737,129.467 "/>
      <polygon style="fill: none; fill-opacity:0; stroke-width: 2; stroke: #000000" points="338.737,-48.4081 445.462,-48.4081 481.037,-12.8331 481.037,129.467 338.737,129.467 "/>
      <polyline style="fill: none; fill-opacity:0; stroke-width: 2; stroke: #000000" points="445.462,-48.4081 445.462,-12.8331 481.037,-12.8331 481.037,-12.8331 "/>
    </g>
    <text font-size="67.7333" style="fill: #000000;text-anchor:start;font-family:Ubuntu;font-style:normal;font-weight:normal" x="367.869" y="65.6799">
      <tspan x="367.869" y="65.6799">+/-</tspan>
    </text>
  </g>
  <g>
    <g>
      <polygon style="fill: #ffffff" points="340.052,208.622 446.777,208.622 482.352,244.197 482.352,386.497 340.052,386.497 "/>
      <polygon style="fill: none; fill-opacity:0; stroke-width: 2; stroke: #000000" points="340.052,208.622 446.777,208.622 482.352,244.197 482.352,386.497 340.052,386.497 "/>
      <polyline style="fill: none; fill-opacity:0; stroke-width: 2; stroke: #000000" points="446.777,208.622 446.777,244.197 482.352,244.197 482.352,244.197 "/>
    </g>
    <text font-size="67.7333" style="fill: #000000;text-anchor:start;font-family:Ubuntu;font-style:normal;font-weight:normal" x="369.184" y="322.71">
      <tspan x="369.184" y="322.71">+/-</tspan>
    </text>
  </g>
  <g>
    <g>
      <polygon style="fill: #ffffff" points="338.723,465.681 445.448,465.681 481.023,501.256 481.023,643.556 338.723,643.556 "/>
      <polygon style="fill: none; fill-opacity:0; stroke-width: 2; stroke: #000000" points="338.723,465.681 445.448,465.681 481.023,501.256 481.023,643.556 338.723,643.556 "/>
      <polyline style="fill: none; fill-opacity:0; stroke-width: 2; stroke: #000000" points="445.448,465.681 445.448,501.256 481.023,501.256 481.023,501.256 "/>
    </g>
    <text font-size="67.7333" style="fill: #000000;text-anchor:start;font-family:Ubuntu;font-style:normal;font-weight:normal" x="367.855" y="579.769">
      <tspan x="367.855" y="579.769">+/-</tspan>
    </text>
  </g>
  <g>
    <line style="fill: none; fill-opacity:0; stroke-width: 2; stroke: #000000" x1="410.577" y1="423.728" x2="410.209" y2="445.684"/>
    <polygon style="fill: #000000" points="410.829,408.73 420.492,428.895 410.577,423.728 400.495,428.56 "/>
    <polygon style="fill: none; fill-opacity:0; stroke-width: 2; stroke: #000000" points="410.829,408.73 420.492,428.895 410.577,423.728 400.495,428.56 "/>
  </g>
  <g>
    <line style="fill: none; fill-opacity:0; stroke-width: 2; stroke: #000000" x1="411.782" y1="941.017" x2="412.146" y2="962.944"/>
    <polygon style="fill: #000000" points="411.533,926.019 421.864,945.85 411.782,941.017 401.867,946.182 "/>
    <polygon style="fill: none; fill-opacity:0; stroke-width: 2; stroke: #000000" points="411.533,926.019 421.864,945.85 411.782,941.017 401.867,946.182 "/>
  </g>
  <g>
    <g>
      <polygon style="fill: #ffffff" points="340.014,725.911 446.739,725.911 482.314,761.486 482.314,903.786 340.014,903.786 "/>
      <polygon style="fill: none; fill-opacity:0; stroke-width: 2; stroke: #000000" points="340.014,725.911 446.739,725.911 482.314,761.486 482.314,903.786 340.014,903.786 "/>
      <polyline style="fill: none; fill-opacity:0; stroke-width: 2; stroke: #000000" points="446.739,725.911 446.739,761.486 482.314,761.486 482.314,761.486 "/>
    </g>
    <text font-size="67.7333" style="fill: #000000;text-anchor:start;font-family:Ubuntu;font-style:normal;font-weight:normal" x="369.146" y="839.999">
      <tspan x="369.146" y="839.999">+/-</tspan>
    </text>
  </g>
  <g>
    <g>
      <polygon style="fill: #ffffff" points="341.328,982.941 448.053,982.941 483.628,1018.52 483.628,1160.82 341.328,1160.82 "/>
      <polygon style="fill: none; fill-opacity:0; stroke-width: 2; stroke: #000000" points="341.328,982.941 448.053,982.941 483.628,1018.52 483.628,1160.82 341.328,1160.82 "/>
      <polyline style="fill: none; fill-opacity:0; stroke-width: 2; stroke: #000000" points="448.053,982.941 448.053,1018.52 483.628,1018.52 483.628,1018.52 "/>
    </g>
    <text font-size="67.7333" style="fill: #000000;text-anchor:start;font-family:Ubuntu;font-style:normal;font-weight:normal" x="370.46" y="1097.03">
      <tspan x="370.46" y="1097.03">+/-</tspan>
    </text>
  </g>
  <g>
    <g>
      <polygon style="fill: #ffffff" points="340,1240 446.725,1240 482.3,1275.58 482.3,1417.88 340,1417.88 "/>
      <polygon style="fill: none; fill-opacity:0; stroke-width: 2; stroke: #000000" points="340,1240 446.725,1240 482.3,1275.58 482.3,1417.88 340,1417.88 "/>
      <polyline style="fill: none; fill-opacity:0; stroke-width: 2; stroke: #000000" points="446.725,1240 446.725,1275.58 482.3,1275.58 482.3,1275.58 "/>
    </g>
    <text font-size="67.7333" style="fill: #000000;text-anchor:start;font-family:Ubuntu;font-style:normal;font-weight:normal" x="369.132" y="1354.09">
      <tspan x="369.132" y="1354.09">+/-</tspan>
    </text>
  </g>
  <g>
    <line style="fill: none; fill-opacity:0; stroke-width: 2; stroke: #000000" x1="411.854" y1="1198.05" x2="411.485" y2="1220"/>
    <polygon style="fill: #000000" points="412.105,1183.05 421.769,1203.21 411.854,1198.05 401.771,1202.88 "/>
    <polygon style="fill: none; fill-opacity:0; stroke-width: 2; stroke: #000000" points="412.105,1183.05 421.769,1203.21 411.854,1198.05 401.771,1202.88 "/>
  </g>
  <g>
    <line style="fill: none; fill-opacity:0; stroke-width: 2; stroke: #000000" x1="410.457" y1="680.788" x2="410.851" y2="705.913"/>
    <polygon style="fill: #000000" points="410.222,665.79 420.534,685.63 410.457,680.788 400.536,685.944 "/>
    <polygon style="fill: none; fill-opacity:0; stroke-width: 2; stroke: #000000" points="410.222,665.79 420.534,685.63 410.457,680.788 400.536,685.944 "/>
  </g>
  <g>
    <line style="fill: none; fill-opacity:0; stroke-width: 2; stroke: #000000" x1="411.768" y1="1715.11" x2="412.132" y2="1737.03"/>
    <polygon style="fill: #000000" points="411.519,1700.11 421.85,1719.94 411.768,1715.11 401.853,1720.27 "/>
    <polygon style="fill: none; fill-opacity:0; stroke-width: 2; stroke: #000000" points="411.519,1700.11 421.85,1719.94 411.768,1715.11 401.853,1720.27 "/>
  </g>
  <g>
    <g>
      <polygon style="fill: #ffffff" points="340,1500 446.725,1500 482.3,1535.58 482.3,1677.88 340,1677.88 "/>
      <polygon style="fill: none; fill-opacity:0; stroke-width: 2; stroke: #000000" points="340,1500 446.725,1500 482.3,1535.58 482.3,1677.88 340,1677.88 "/>
      <polyline style="fill: none; fill-opacity:0; stroke-width: 2; stroke: #000000" points="446.725,1500 446.725,1535.58 482.3,1535.58 482.3,1535.58 "/>
    </g>
    <text font-size="67.7333" style="fill: #000000;text-anchor:start;font-family:Ubuntu;font-style:normal;font-weight:normal" x="369.132" y="1614.09">
      <tspan x="369.132" y="1614.09">+/-</tspan>
    </text>
  </g>
  <g>
    <g>
      <polygon style="fill: #ffffff" points="341.314,1757.03 448.039,1757.03 483.614,1792.61 483.614,1934.91 341.314,1934.91 "/>
      <polygon style="fill: none; fill-opacity:0; stroke-width: 2; stroke: #000000" points="341.314,1757.03 448.039,1757.03 483.614,1792.61 483.614,1934.91 341.314,1934.91 "/>
      <polyline style="fill: none; fill-opacity:0; stroke-width: 2; stroke: #000000" points="448.039,1757.03 448.039,1792.61 483.614,1792.61 483.614,1792.61 "/>
    </g>
    <text font-size="67.7333" style="fill: #000000;text-anchor:start;font-family:Ubuntu;font-style:normal;font-weight:normal" x="370.446" y="1871.12">
      <tspan x="370.446" y="1871.12">+/-</tspan>
    </text>
  </g>
  <g>
    <g>
      <polygon style="fill: #ffffff" points="339.986,2014.09 446.711,2014.09 482.286,2049.66 482.286,2191.96 339.986,2191.96 "/>
      <polygon style="fill: none; fill-opacity:0; stroke-width: 2; stroke: #000000" points="339.986,2014.09 446.711,2014.09 482.286,2049.66 482.286,2191.96 339.986,2191.96 "/>
      <polyline style="fill: none; fill-opacity:0; stroke-width: 2; stroke: #000000" points="446.711,2014.09 446.711,2049.66 482.286,2049.66 482.286,2049.66 "/>
    </g>
    <text font-size="67.7333" style="fill: #000000;text-anchor:start;font-family:Ubuntu;font-style:normal;font-weight:normal" x="369.118" y="2128.18">
      <tspan x="369.118" y="2128.18">+/-</tspan>
    </text>
  </g>
  <g>
    <line style="fill: none; fill-opacity:0; stroke-width: 2; stroke: #000000" x1="411.84" y1="1972.14" x2="411.471" y2="1994.09"/>
    <polygon style="fill: #000000" points="412.091,1957.14 421.754,1977.3 411.84,1972.14 401.757,1976.97 "/>
    <polygon style="fill: none; fill-opacity:0; stroke-width: 2; stroke: #000000" points="412.091,1957.14 421.754,1977.3 411.84,1972.14 401.757,1976.97 "/>
  </g>
  <g>
    <g>
      <polygon style="fill: #ffffff" points="341.277,2274.32 448.002,2274.32 483.577,2309.89 483.577,2452.19 341.277,2452.19 "/>
      <polygon style="fill: none; fill-opacity:0; stroke-width: 2; stroke: #000000" points="341.277,2274.32 448.002,2274.32 483.577,2309.89 483.577,2452.19 341.277,2452.19 "/>
      <polyline style="fill: none; fill-opacity:0; stroke-width: 2; stroke: #000000" points="448.002,2274.32 448.002,2309.89 483.577,2309.89 483.577,2309.89 "/>
    </g>
    <text font-size="67.7333" style="fill: #000000;text-anchor:start;font-family:Ubuntu;font-style:normal;font-weight:normal" x="370.409" y="2388.41">
      <tspan x="370.409" y="2388.41">+/-</tspan>
    </text>
  </g>
  <g>
    <line style="fill: none; fill-opacity:0; stroke-width: 2; stroke: #000000" x1="411.719" y1="2229.2" x2="412.113" y2="2254.32"/>
    <polygon style="fill: #000000" points="411.484,2214.2 421.797,2234.04 411.719,2229.2 401.799,2234.35 "/>
    <polygon style="fill: none; fill-opacity:0; stroke-width: 2; stroke: #000000" points="411.484,2214.2 421.797,2234.04 411.719,2229.2 401.799,2234.35 "/>
  </g>
  <g>
    <line style="fill: none; fill-opacity:0; stroke-width: 2; stroke: #000000" x1="411.15" y1="1455.11" x2="411.15" y2="1480"/>
    <polygon style="fill: #000000" points="411.15,1440.11 421.15,1460.11 411.15,1455.11 401.15,1460.11 "/>
    <polygon style="fill: none; fill-opacity:0; stroke-width: 2; stroke: #000000" points="411.15,1440.11 421.15,1460.11 411.15,1455.11 401.15,1460.11 "/>
  </g>
</svg>
